<svg width="200" height="166" viewBox="0 0 200 166" fill="none" xmlns="http://www.w3.org/2000/svg">
<g id="Group">
<path id="BG" d="M45.6771 35.9378C44.914 46.744 42.0964 59.8854 27.6893 68.1749C-20.6334 95.9839 1.79173 137.651 37.9379 137.308C98.1197 136.736 102.885 136.274 143.959 148.705C182.827 160.467 202.95 132.915 183.64 103.165C168.682 80.1221 162.972 71.3648 175.702 41.8719C191.535 5.19196 157.331 -10.7395 129.398 9.27343C106.6 25.6066 94.0126 22.1103 82.1608 18.3682C59.9466 11.3573 47.4913 10.2456 45.6771 35.9359V35.9378Z" fill="#D3E3ED" fill-opacity="0.7"/>
<g id="Shoes_left">
<path id="Vector" d="M78.9468 148.223V153.449C76.4392 157.668 69.4246 162.991 62.2853 164.402C56.751 165.493 46.9005 165.392 42.9346 160.223V154.786C42.9346 142.65 53.9573 137.494 62.0523 141.054C60.4766 140.168 59.4805 139.194 59.4805 137.908C59.4805 135.245 63.7619 133.92 69.0413 133.92C74.3206 133.92 78.602 135.246 78.602 137.908C78.602 138.546 78.3562 139.106 77.9214 139.579C79.7521 143.033 78.9487 148.223 78.9487 148.223H78.9468Z" fill="#494A49"/>
<path id="Vector_2" d="M78.4589 148.221V153.269C76.0284 157.292 69.1238 162.555 62.1918 163.923C59.4824 164.459 55.6706 164.703 52.0899 164.178C48.5588 163.661 45.3009 162.369 43.4207 160.001V154.784H42.4448V160.386L42.5439 160.515C44.6442 163.254 48.2267 164.596 51.9487 165.141C55.6688 165.686 59.5539 165.435 62.377 164.879C69.6851 163.437 76.7438 158.103 79.3633 153.695L79.4311 153.579V148.217H78.4552L78.4589 148.221Z" fill="#1A1A1A"/>
<path id="Vector_3" d="M78.3601 139.343L77.4998 139.796C79.1654 142.965 78.4995 147.823 78.472 148.026C78.3858 148.155 73.5797 155.36 62.159 158.433C59.5322 159.139 55.5223 159.475 51.8333 158.959C48.194 158.449 44.9416 157.09 43.4503 154.623C43.5255 146.594 48.4893 141.828 54.1043 140.768C59.7615 139.7 66.0295 142.375 68.5994 149.575L69.5185 149.246C66.8054 141.643 60.0091 138.658 53.9264 139.808C47.8436 140.957 42.4487 146.242 42.4487 154.788V154.916L42.5129 155.032C44.2134 157.976 47.8583 159.39 51.6994 159.928C55.5406 160.465 59.6257 160.126 62.414 159.376C74.2474 156.193 79.3543 148.492 79.3543 148.492L79.4112 148.404L79.4277 148.298C79.4277 148.298 80.3027 143.039 78.3601 139.344V139.343Z" fill="#1A1A1A"/>
<path id="Vector_4" d="M62.6729 137.396C68.7006 133.931 74.798 137.173 74.798 137.173C74.798 137.173 70.2066 140.073 62.6729 137.396Z" fill="#4D4D4D"/>
<path id="Vector_5" d="M74.9075 136.663C71.9212 138.237 66.7758 138.413 62.8521 136.918L62.5054 137.828C66.7097 139.429 72.0074 139.295 75.3624 137.527L74.9093 136.663H74.9075Z" fill="#1A1A1A"/>
<path id="Vector_6" d="M67.264 145.049L67.3172 146.025C67.3172 146.025 69.7679 145.835 71.329 148.604L72.1783 148.128C70.3825 144.943 67.2622 145.049 67.2622 145.049H67.264Z" fill="#1A1A1A"/>
<path id="Vector_7" d="M69.0399 133.432C66.3599 133.432 63.9238 133.759 62.1041 134.458C61.1943 134.806 60.433 135.252 59.879 135.823C59.3251 136.393 58.9912 137.11 58.9912 137.906C58.9912 138.703 59.3251 139.423 59.879 139.994C60.433 140.564 61.1943 141.005 62.1041 141.355C63.9238 142.054 66.358 142.384 69.0399 142.384V141.408C66.4406 141.408 64.0963 141.074 62.4563 140.443C61.6364 140.128 60.9962 139.743 60.5816 139.315C60.167 138.888 59.9689 138.44 59.9689 137.905C59.9689 137.369 60.1689 136.925 60.5816 136.499C60.9962 136.072 61.6364 135.683 62.4563 135.368C64.0963 134.738 66.4424 134.408 69.0399 134.408C71.6373 134.408 73.9835 134.738 75.6234 135.368C76.4434 135.683 77.0836 136.072 77.4981 136.499C77.9127 136.927 78.1108 137.371 78.1108 137.905C78.1108 138.438 77.9274 138.847 77.5476 139.26C77.1661 139.673 76.5773 140.053 75.8178 140.364L76.1921 141.267C77.0414 140.917 77.7513 140.48 78.2649 139.922C78.7803 139.365 79.0885 138.668 79.0885 137.903C79.0885 137.138 78.7547 136.389 78.2007 135.819C77.6467 135.248 76.8854 134.804 75.9756 134.454C74.1559 133.755 71.7217 133.429 69.0399 133.429V133.432Z" fill="#1A1A1A"/>
</g>
<path id="leg_left" d="M121.662 91.7227C121.662 91.7227 76.0742 102.542 65.8623 138.275C68.4084 139.029 72.0239 138.161 72.0239 138.161C82.0854 107.944 123.069 97.4037 123.069 97.4037L121.664 91.7227H121.662Z" fill="#1A1A1A"/>
<g id="Shoe_right">
<path id="Vector_8" d="M134.385 140.168C134.807 139.568 135.106 138.957 135.106 138.257C135.106 135.593 130.824 134.269 125.545 134.269C120.266 134.269 115.984 135.595 115.984 138.257C115.984 138.915 116.247 139.491 116.727 139.994C116.727 139.994 113.398 145.372 115.586 153.264V158.49C123.419 163.013 148.288 163.375 156.232 158.49V153.157C158.523 135.857 141.214 131.998 134.387 140.166L134.385 140.168Z" fill="#494A49"/>
<path id="Vector_9" d="M131.673 137.75C126.344 135.298 119.685 137.358 119.685 137.358C119.685 137.358 124.269 140.373 131.673 137.75Z" fill="#4D4D4D"/>
<path id="Vector_10" d="M156.717 153.265V158.765L156.484 158.906C152.314 161.47 144.098 162.553 135.862 162.507C127.626 162.463 119.448 161.283 115.343 158.913L115.099 158.772V153.265H116.075V158.143C119.875 160.238 127.846 161.485 135.869 161.531C143.898 161.575 151.9 160.405 155.741 158.147V153.265H156.717Z" fill="#1A1A1A"/>
<path id="Vector_11" d="M143.682 135.601C147.277 135.621 150.937 137.07 153.498 140.029C156.058 142.986 157.489 147.432 156.713 153.328L156.679 153.583L156.449 153.7C152.459 155.724 144.326 156.854 136.086 156.954C127.846 157.055 119.584 156.138 115.341 153.689L115.165 153.587L115.112 153.396C112.874 145.326 116.315 139.746 116.315 139.746L117.146 140.26C117.146 140.26 114.024 145.326 116.018 152.895C119.918 155.063 128.009 156.076 136.073 155.979C144.093 155.881 152.017 154.694 155.736 152.904C156.385 147.401 155.072 143.34 152.757 140.665C150.394 137.936 147.011 136.589 143.677 136.576C141.606 136.576 139.386 136.919 137.443 138.104C135.501 139.289 133.808 141.302 132.791 144.761L131.854 144.486C132.925 140.843 134.785 138.581 136.937 137.27C139.089 135.958 141.499 135.591 143.682 135.604V135.601Z" fill="#1A1A1A"/>
<path id="Vector_12" d="M119.676 137.013C122.662 138.587 127.807 138.763 131.731 137.268L132.078 138.178C127.873 139.779 122.576 139.645 119.221 137.877L119.674 137.013H119.676Z" fill="#1A1A1A"/>
<path id="Vector_13" d="M125.544 133.779C128.224 133.779 130.66 134.109 132.48 134.808C133.389 135.157 134.151 135.602 134.705 136.173C135.259 136.743 135.593 137.461 135.593 138.257C135.593 139.053 135.259 139.774 134.705 140.344C134.151 140.915 133.389 141.355 132.48 141.705C130.66 142.404 128.226 142.734 125.544 142.734V141.759C128.143 141.759 130.491 141.425 132.133 140.795C132.953 140.48 133.589 140.091 134.004 139.664C134.419 139.236 134.617 138.792 134.617 138.259C134.617 137.725 134.417 137.279 134.004 136.853C133.589 136.426 132.953 136.037 132.133 135.722C130.493 135.092 128.143 134.757 125.544 134.757C122.945 134.757 120.6 135.091 118.96 135.722C118.14 136.037 117.5 136.426 117.086 136.853C116.671 137.281 116.473 137.725 116.473 138.259C116.473 138.792 116.656 139.201 117.036 139.614C117.418 140.027 118.006 140.407 118.766 140.718L118.397 141.617C117.548 141.267 116.834 140.83 116.321 140.273C115.805 139.715 115.497 139.022 115.497 138.257C115.497 137.492 115.831 136.743 116.385 136.173C116.939 135.602 117.7 135.158 118.61 134.808C120.43 134.109 122.864 133.779 125.546 133.779H125.544Z" fill="#1A1A1A"/>
</g>
<path id="_leg_Right" d="M79.6183 92.5574L78.105 98.2127C107.4 106.062 117.709 117.976 121.224 127.5C122.799 131.771 123.036 135.621 122.816 138.571C125.175 139.235 128.627 138.539 128.627 138.539C128.849 134.915 128.521 130.365 126.714 125.473C122.442 113.897 110.032 100.709 79.6165 92.5574H79.6183Z" fill="#1A1A1A"/>
<path id="Arm Left" d="M68.0013 74.1679C68.0013 74.1679 58.934 74.498 51.6131 80.7147C44.2921 86.9314 39.3815 99.2418 46.6218 120.243L52.1542 118.338C45.3799 98.686 49.8466 89.8957 55.4047 85.1759C60.9629 80.4561 68.2765 80.0121 68.2765 80.0121L68.0013 74.166V74.1679Z" fill="#1A1A1A"/>
<g id="Hand Left">
<path id="Vector_14" d="M41.8283 112.66L41.0083 109.637C42.1053 108.887 44.8238 108.292 46.4894 108.072C48.155 107.852 50.9359 107.724 52.1888 108.166L52.1796 111.297C52.1796 111.297 50.6846 111.198 49.4996 111.847C48.3146 112.495 47.1186 113.696 47.1186 113.696C47.1186 113.696 45.4823 112.368 44.0552 112.438C42.628 112.508 41.8264 112.66 41.8264 112.66H41.8283Z" fill="white"/>
<path id="Vector_15" d="M47.1813 113.728C39.156 109.072 35.0231 119.698 39.4916 125.623L39.9924 130.31C39.9924 130.31 41.7296 131.754 43.2393 131.701C44.7508 131.649 46.2128 130.576 46.2128 130.576L46.6108 131.609C46.6108 131.609 47.9242 133.166 49.7329 132.722C51.5416 132.279 52.8055 130.793 52.8055 130.793C52.8055 130.793 54.7774 131.589 56.4247 131.02C58.0719 130.452 58.8607 129.351 58.8607 129.351L58.6076 125.658C58.6076 125.658 59.8769 123.556 60.2346 121.836C60.5923 120.117 60.4584 119.108 60.4584 119.108C58.3507 111.468 51.028 108.615 47.1813 113.728Z" fill="white"/>
<path id="Vector_16" d="M58.4205 121.232L57.4794 121.476C57.7546 122.545 58.0261 124.305 58.1948 125.895C58.2792 126.691 58.3379 127.445 58.3599 128.052C58.3801 128.604 58.3489 128.991 58.3233 129.153C57.2226 130.648 55.3589 131.206 53.1045 130.164L52.8624 127.388L51.8901 127.473L52.1855 130.87L52.4276 130.993C55.17 132.396 57.8041 131.635 59.1909 129.67L59.2459 129.597L59.2661 129.512C59.3633 129.135 59.3615 128.663 59.3395 128.021C59.3175 127.381 59.2551 126.609 59.1689 125.796C58.9965 124.171 58.725 122.399 58.4223 121.23L58.4205 121.232Z" fill="#1A1A1A"/>
<path id="Vector_17" d="M48.8693 124.143L48.3887 124.211L48.6932 126.357L49.1774 126.287L48.8693 124.143Z" fill="#1A1A1A"/>
<path id="Vector_18" d="M43.0356 124.235L42.5439 124.248L42.5861 125.99L43.0759 125.976L43.0356 124.235Z" fill="#1A1A1A"/>
<path id="Vector_19" d="M54.6342 122.837L54.1572 122.927L54.5241 124.809L54.9992 124.716L54.6342 122.837Z" fill="#1A1A1A"/>
<path id="Vector_20" d="M55.7425 111.717C53.7321 110.585 51.6042 110.604 49.8652 111.189L50.1771 112.115C51.6959 111.603 53.5083 111.581 55.2619 112.568C57.0009 113.548 58.7142 115.562 59.9671 119.2C59.9873 120.968 59.6259 123.696 58.2978 125.123L59.0095 125.785C60.6972 123.971 60.9815 121.001 60.9485 119.102V119.025L60.9246 118.954C59.6167 115.105 57.7548 112.849 55.7425 111.715V111.717Z" fill="#1A1A1A"/>
<path id="Vector_21" d="M52.6787 107.821L52.3503 107.704C51.6019 107.44 50.5747 107.377 49.4906 107.383C48.4046 107.386 47.282 107.474 46.4272 107.588C45.5724 107.7 44.4626 107.909 43.4133 108.186C42.3641 108.463 41.3882 108.79 40.7333 109.237L40.4453 109.43L41.3552 112.789L42.2962 112.532L41.5881 109.923C42.0779 109.652 42.786 109.358 43.6573 109.129C44.657 108.865 45.7411 108.661 46.5519 108.555C47.3627 108.448 48.4597 108.362 49.4942 108.359C50.3949 108.355 51.1562 108.454 51.6991 108.59L51.6918 111.297H52.6659L52.6787 107.821Z" fill="#1A1A1A"/>
<path id="Vector_22" d="M52.9539 128.46L51.9835 128.546L52.1486 130.415C51.2809 132.413 48.3826 132.842 46.983 131.163L46.6143 128.608L45.6494 128.746L46.0676 131.637L46.1502 131.739C48.0139 134.106 51.9725 133.521 53.1006 130.743L53.1465 130.633L52.9539 128.458V128.46Z" fill="#1A1A1A"/>
<path id="Vector_23" d="M44.1089 111.95C41.4124 111.688 39.0241 113.475 37.8923 116.166C36.777 118.816 36.8797 122.377 38.8957 125.893C38.9067 127.673 39.1855 129.291 39.6826 130.488L39.7028 130.538L39.7303 130.584C40.5961 131.822 42.0746 132.325 43.4504 132.251C44.8262 132.18 46.1726 131.545 46.7761 130.345L45.9066 129.909C45.5104 130.696 44.5033 131.222 43.399 131.279C42.3094 131.336 41.2106 130.925 40.5704 130.041C40.1449 128.984 39.8495 127.491 39.8495 125.809V125.675L39.7817 125.559C37.8152 122.23 37.7822 118.934 38.7874 116.545C39.7927 114.157 41.7921 112.71 44.0099 112.926L44.1108 111.95H44.1089Z" fill="#1A1A1A"/>
</g>
<path id="Arm Right" d="M137.115 83.4295C134.224 83.0553 130.876 83.18 126.995 83.8606L128.004 89.626C134.915 88.4153 138.733 89.2536 141.332 90.9247C143.933 92.5958 145.679 95.4703 147.505 99.3041C151.153 106.972 155.117 118.134 169.057 123.82L171.267 118.402C159.371 113.55 156.676 104.956 152.789 96.7892C150.847 92.7059 148.607 88.6464 144.494 86.0013C142.438 84.6787 140.004 83.8037 137.113 83.4295H137.115Z" fill="#1A1A1A"/>
<g id="Magnifying Glass">
<g id="Group_2" opacity="0.5">
<path id="Vector_24" d="M197.237 88.3254C197.552 81.3918 192.186 75.5159 185.253 75.201C178.319 74.8862 172.443 80.2517 172.128 87.1852C171.813 94.1188 177.179 99.9947 184.112 100.31C191.046 100.624 196.922 95.2589 197.237 88.3254Z" fill="#DADADA"/>
</g>
<g id="Magnifying Glass_2">
<g id="Vector_25" style="mix-blend-mode:screen" opacity="0.5">
<path d="M194.892 86.8084C195.031 86.8854 195.196 86.9184 195.367 86.8909C195.778 86.8267 196.058 86.4433 195.996 86.0324C195.873 85.2363 195.666 84.4494 195.38 83.6955C195.231 83.3066 194.798 83.1121 194.409 83.2589C194.02 83.4056 193.826 83.8404 193.973 84.2293C194.222 84.8841 194.402 85.5683 194.508 86.2617C194.545 86.502 194.694 86.6983 194.892 86.8084Z" fill="white"/>
</g>
<g id="Vector_26" style="mix-blend-mode:screen" opacity="0.5">
<path d="M189.238 97.9118C189.449 98.0274 189.713 98.0402 189.944 97.921C191.975 96.8735 193.63 95.2593 194.728 93.2525C195.284 92.2381 195.68 91.1522 195.906 90.0259C195.989 89.6186 195.724 89.2224 195.317 89.1399C194.91 89.0573 194.514 89.3215 194.431 89.7287C194.235 90.7046 193.89 91.6474 193.408 92.5298C192.454 94.2724 191.017 95.6739 189.255 96.5837C188.886 96.7745 188.739 97.2276 188.93 97.5981C189.001 97.7375 189.11 97.8439 189.238 97.9136V97.9118Z" fill="white"/>
</g>
<path id="Vector_27" d="M192.037 74.3347C199.452 78.3905 202.176 87.6907 198.12 95.1052C194.064 102.52 184.764 105.244 177.35 101.188C169.933 97.1322 167.211 87.8319 171.267 80.4174C175.323 73.0029 184.623 70.2789 192.037 74.3347ZM178.663 98.7868C184.753 102.118 192.39 99.88 195.719 93.7918C199.05 87.7017 196.812 80.0652 190.724 76.7359C184.634 73.4047 176.997 75.6426 173.668 81.7308C170.337 87.8209 172.575 95.4574 178.663 98.7868Z" fill="#333333"/>
<path id="Vector_28" d="M162.671 123.526L166.469 125.604L176.844 106.638L173.046 104.561L162.671 123.526Z" fill="#112129"/>
<path id="Vector_29" d="M165.171 124.893L165.923 125.304L176.298 106.338L175.546 105.927L165.171 124.893Z" fill="#333333"/>
<path id="Vector_30" d="M162.67 123.528L163.919 124.211L174.294 105.246L173.045 104.563L162.67 123.528Z" fill="#112129"/>
<path id="Vector_31" d="M173.873 105.012L176.019 106.185L179.521 99.7816L177.376 98.6081L173.873 105.012Z" fill="#1A1A1A"/>
<path id="Vector_32" d="M175.777 101.516L177.094 99.1096C177.428 99.3371 177.777 99.5517 178.138 99.7498C178.5 99.9479 178.868 100.124 179.241 100.284L177.924 102.69C177.553 102.525 177.186 102.347 176.825 102.149C176.463 101.951 176.117 101.738 175.777 101.516Z" fill="#112129"/>
</g>
</g>
<g id="Hand Right ">
<path id="Vector_33" d="M155.785 117.976L153.295 116.078C153.708 114.814 155.504 112.688 156.691 111.499C157.879 110.31 160.006 108.516 161.269 108.104L163.168 110.593C163.168 110.593 161.922 111.424 161.376 112.66C160.829 113.895 160.613 115.577 160.613 115.577C160.613 115.577 158.505 115.518 157.417 116.443C156.328 117.367 155.785 117.976 155.785 117.976Z" fill="white"/>
<path id="Vector_34" d="M161.821 129.685L177.008 118.075C177.008 118.075 176.735 115.634 175.972 114.052C175.209 112.471 174.49 111.752 174.49 111.752C168.165 106.973 161.798 108.766 160.438 115.357C151.237 116.549 154.669 127.705 161.82 129.685H161.821Z" fill="white"/>
<path id="Vector_35" d="M161.447 107.531L161.115 107.641C160.361 107.887 159.508 108.459 158.65 109.123C157.791 109.788 156.955 110.545 156.344 111.154C155.735 111.763 154.977 112.601 154.313 113.46C153.649 114.318 153.077 115.171 152.831 115.925L152.721 116.257L155.487 118.365L156.078 117.587L153.928 115.949C154.152 115.436 154.535 114.771 155.086 114.06C155.719 113.242 156.454 112.424 157.032 111.846C157.61 111.268 158.428 110.532 159.246 109.899C159.958 109.347 160.622 108.964 161.135 108.742L162.774 110.892L163.551 110.301L161.444 107.535L161.447 107.531Z" fill="#1A1A1A"/>
<path id="Vector_36" d="M158.8 115.331C157.184 115.745 155.986 116.73 155.288 118.009C154.589 119.288 154.378 120.845 154.644 122.43C155.174 125.598 157.619 128.901 162.022 130.455L162.346 129.536C158.246 128.089 156.073 125.062 155.605 122.267C155.37 120.869 155.568 119.537 156.146 118.479C156.724 117.42 157.674 116.624 159.046 116.272L158.802 115.331H158.8Z" fill="#1A1A1A"/>
<path id="Vector_37" d="M170.839 120.601C170.938 120.794 171.059 120.981 171.208 121.166L175.264 125.589C178.109 125.068 179.512 123.105 179.426 120.92C178.738 120.073 177.993 119.205 176.906 117.974L170.841 120.601H170.839Z" fill="white"/>
<path id="Vector_38" d="M166.604 125.858C163.63 123.015 159.318 126.442 162.179 129.997C163.309 131.402 164.201 132.156 165.18 132.998C167.807 133.829 170.546 131.141 169.772 128.874L166.604 125.857V125.858Z" fill="white"/>
<path id="Vector_39" d="M171.208 121.166C168.286 117.587 162.878 122.292 166.604 125.858L170.944 130.011C173.494 130.661 175.957 128.114 175.262 125.589L171.206 121.166H171.208Z" fill="white"/>
<path id="Vector_40" d="M177.269 117.651L176.537 118.295C177.56 119.453 178.25 120.263 178.899 121.058C178.92 122.896 177.79 124.457 175.387 124.998L171.577 120.841L171.569 120.834C171.452 120.684 171.355 120.529 171.276 120.377L170.406 120.823C170.52 121.045 170.661 121.263 170.83 121.471L170.837 121.482L175.086 126.115L175.352 126.069C178.382 125.513 180.009 123.305 179.912 120.902L179.905 120.739L179.802 120.614C179.108 119.759 178.358 118.886 177.269 117.653V117.651Z" fill="#1A1A1A"/>
<path id="Vector_41" d="M164.276 124.329C163.377 124.299 162.524 124.607 161.888 125.16C160.611 126.264 160.246 128.373 161.8 130.303C162.953 131.739 163.885 132.526 164.863 133.367L164.94 133.431L165.035 133.462C166.54 133.937 168.06 133.409 169.086 132.457C170.111 131.505 170.7 130.074 170.236 128.718L170.194 128.604L166.943 125.506C166.121 124.721 165.175 124.358 164.276 124.329ZM164.237 125.281C164.894 125.299 165.602 125.574 166.268 126.211L169.289 129.091C169.564 129.988 169.21 131.006 168.42 131.739C167.629 132.475 166.49 132.836 165.388 132.517C164.452 131.714 163.623 131.017 162.561 129.694C161.253 128.069 161.614 126.686 162.522 125.899C162.977 125.506 163.581 125.264 164.237 125.281Z" fill="#1A1A1A"/>
<path id="Vector_42" d="M168.733 119.401C167.734 119.394 166.787 119.811 166.077 120.476C165.367 121.142 164.887 122.072 164.854 123.101C164.821 124.132 165.256 125.242 166.268 126.211L170.7 130.452L170.826 130.483C173.745 131.226 176.531 128.351 175.733 125.46L175.702 125.347L171.582 120.858C170.771 119.866 169.731 119.411 168.732 119.403L168.733 119.401ZM168.726 120.377C169.445 120.383 170.179 120.678 170.83 121.474L170.837 121.485L170.848 121.496L174.778 125.78C175.304 127.893 173.268 129.997 171.135 129.518L166.943 125.506C166.092 124.692 165.802 123.875 165.826 123.133C165.85 122.39 166.202 121.698 166.745 121.19C167.286 120.682 168.007 120.374 168.726 120.377Z" fill="#1A1A1A"/>
<path id="Vector_43" d="M169.926 116.89C168.689 119.471 171.694 122.419 174.027 120.896L176.711 118.844C177.584 116.422 175.803 113.397 174.495 111.752C166.596 106.478 162.027 110.343 160.831 113.893C163.9 115.942 167.394 117.483 169.928 116.89H169.926Z" fill="white"/>
<path id="Vector_44" d="M169.286 108.889C167.653 108.551 166.219 108.65 164.995 109.052C162.548 109.857 161.005 111.836 160.365 113.739L161.292 114.05C161.846 112.403 163.19 110.672 165.3 109.976C167.396 109.287 170.326 109.595 174.156 112.13C174.778 112.92 175.502 114.014 175.967 115.186C176.429 116.354 176.585 117.556 176.245 118.589L173.752 120.491C172.789 121.115 171.738 120.827 170.979 120.084C170.218 119.339 169.845 118.187 170.366 117.101L170.762 116.281L169.86 116.408C169.86 116.408 166.804 116.837 163.762 115.013L163.26 115.852C166.145 117.583 168.664 117.439 169.414 117.372C169.113 118.653 169.44 119.942 170.298 120.783C171.313 121.777 172.929 122.201 174.295 121.309L174.312 121.298L177.124 119.148L177.174 119.014C177.667 117.642 177.401 116.16 176.876 114.83C176.352 113.502 175.557 112.302 174.881 111.449L174.831 111.392L174.771 111.35C172.755 110.004 170.924 109.228 169.291 108.889H169.286Z" fill="#1A1A1A"/>
</g>
<g id="Football">
<path id="Vector_45" d="M95.5352 114.759C101.563 113.676 105.67 110.008 106.813 108.881C107.957 108.96 115.313 109.276 123.212 104.895C123.871 105.425 125.03 106.139 126.995 106.772C119.543 113.24 109.814 117.156 99.169 117.156C98.782 117.156 98.3968 117.151 98.0115 117.14C96.7147 116.118 95.9607 115.305 95.537 114.759H95.5352Z" fill="white"/>
<path id="Vector_46" d="M74.3998 109.188H78.7692C86.259 114.606 95.5023 114.766 95.5023 114.766C95.5133 114.766 95.5243 114.76 95.5353 114.76C95.9591 115.307 96.713 116.12 98.0099 117.141C89.2104 116.907 81.0787 113.994 74.3979 109.189L74.3998 109.188Z" fill="#212121"/>
<path id="Vector_47" d="M123.212 104.895C123.212 104.895 123.227 104.888 123.232 104.884C123.232 104.884 127.827 98.8638 128.326 90.7724C130.716 88.8811 135.473 84.4493 137.575 77.7924C137.575 77.7924 137.58 77.7135 137.59 77.5649C138.426 78.0309 139.758 78.7206 141.381 79.3828C140.183 90.2863 134.853 99.9497 126.994 106.772C125.032 106.139 123.87 105.427 123.212 104.895Z" fill="white"/>
<path id="Vector_48" d="M123.212 104.895C123.212 104.895 123.226 104.888 123.232 104.884C123.232 104.884 127.827 98.8638 128.326 90.7724C129.291 90.0074 130.646 88.8279 132.053 87.2541C132.229 87.0559 132.407 86.8523 132.585 86.6414C134.495 84.3869 136.428 81.4189 137.573 77.7924C137.573 77.7924 137.578 77.7135 137.588 77.5649C138.424 78.0309 139.756 78.7206 141.379 79.3828C141.337 79.7643 141.289 80.1422 141.24 80.5183C141.051 81.8995 140.792 83.2625 140.473 84.5997C139.958 86.7606 139.273 88.8591 138.439 90.8788C135.981 96.835 132.206 102.109 127.478 106.341C127.317 106.486 127.156 106.629 126.99 106.772C125.028 106.139 123.867 105.427 123.208 104.895H123.212Z" fill="white"/>
<path id="Vector_49" d="M134.359 61.118C135.06 59.711 136.045 57.3098 136.445 54.3198C139.756 60.3659 141.638 67.3071 141.638 74.6849C141.638 76.2717 141.55 77.8401 141.379 79.3828C139.756 78.7205 138.424 78.029 137.588 77.5649C137.676 76.0552 137.995 67.3512 134.357 61.118H134.359Z" fill="#212121"/>
<path id="Vector_50" d="M57.5825 83.3562C60.3946 84.3082 62.35 84.5155 63.5534 84.5045C64.5806 86.6562 65.8353 88.6355 67.1084 90.3708C68.3961 92.1263 69.7058 93.6323 70.8211 94.8136C72.5564 96.6535 73.8277 97.7119 73.8277 97.7119C73.9396 97.6734 74.0514 97.6331 74.167 97.5909C74.6219 103.963 78.7676 109.186 78.7676 109.186H74.3981C69.46 105.635 65.3144 101.049 62.2803 95.7473C61.2494 93.9442 60.3451 92.0603 59.5838 90.1048C58.7382 87.9366 58.065 85.6822 57.5825 83.358V83.3562Z" fill="white"/>
<path id="Vector_51" d="M56.6963 74.685C56.6963 70.9374 57.1824 67.3054 58.0941 63.844C59.0901 60.056 60.598 56.4753 62.5369 53.179C65.028 53.4761 66.6697 53.9861 67.6805 54.4116C67.6566 54.4483 67.6364 54.4869 67.6144 54.5254C67.6144 54.5254 67.1907 55.7434 66.9247 57.9483C66.5945 60.7127 66.5138 65.0326 67.8327 70.4605C64.098 76.3451 63.4706 84.3265 63.4706 84.3265C63.4999 84.3852 63.5256 84.4457 63.555 84.5044C62.3498 84.5154 60.3944 84.3081 57.5841 83.3561C57.0045 80.5569 56.6981 77.6549 56.6981 74.6832L56.6963 74.685Z" fill="#F2F2F2"/>
<path id="Vector_52" d="M62.5366 53.1772C67.2638 45.1427 74.5609 38.7994 83.2961 35.2793C81.5076 38.528 81.1132 41.2722 81.071 42.8974C81.0472 42.8974 81.0234 42.8919 80.9995 42.8919C80.9995 42.8919 72.0075 46.9936 67.6802 54.4117C66.6694 53.9843 65.0277 53.4762 62.5366 53.179V53.1772Z" fill="#212121"/>
<path id="Vector_53" d="M81.0708 42.8973C81.113 41.2721 81.5074 38.5297 83.2959 35.2792C88.1991 33.3018 93.5555 32.2122 99.1668 32.2122C104.05 32.2122 108.742 33.0358 113.108 34.5546C112.396 37.8363 111.49 41.1675 111 42.9157C110.987 42.9083 110.973 42.8973 110.96 42.89C110.96 42.89 103.399 42.7322 94.5424 46.9586C92.7961 45.8085 88.5715 43.5999 81.0708 42.8955V42.8973Z" fill="#DDDDDD"/>
<path id="Vector_54" d="M111.001 42.9157C111.493 41.1676 112.397 37.8364 113.109 34.5547C122.539 37.829 130.458 44.3355 135.539 52.7461C135.853 53.2615 136.154 53.7862 136.444 54.3181C136.044 57.31 135.059 59.7093 134.358 61.1163C134.316 61.0429 134.272 60.9714 134.228 60.898C134.228 60.898 128.506 56.5707 121.503 56.0168C121.549 55.9434 121.594 55.8718 121.638 55.7985C121.638 55.7985 120.697 53.6284 118.852 50.9062C117.069 48.2684 114.437 45.1151 111.001 42.9157Z" fill="#F2F2F2"/>
<path id="Vector_55" d="M63.4707 84.3265C63.4707 84.3265 64.0962 76.3433 67.8328 70.4623C67.864 70.4073 67.8989 70.3559 67.9337 70.3027C67.9337 70.3027 77.1422 73.456 81.6419 74.8263C81.9703 82.9378 84.5072 91.9776 84.5072 91.9776C84.5182 91.9831 84.5274 91.9886 84.5384 91.9941C82.3225 93.4176 77.599 96.3287 74.1687 97.5944C74.0532 97.6366 73.9413 97.677 73.8294 97.7155C73.8294 97.7155 67.2385 92.2216 63.5551 84.5081C63.5257 84.4494 63.5001 84.3888 63.4707 84.3301V84.3265Z" fill="#212121"/>
<path id="Vector_56" d="M94.3872 47.0338C94.4404 47.0081 94.4899 46.9842 94.5431 46.9585C103.401 42.7322 110.961 42.8899 110.961 42.8899C110.974 42.8973 110.988 42.9083 111.001 42.9156C117.988 47.3841 121.639 55.7983 121.639 55.7983C121.594 55.8717 121.549 55.9433 121.503 56.0166C118.318 61.1308 113.492 66.821 111.938 68.6132C111.924 68.571 111.916 68.5472 111.916 68.5472C107.884 66.3881 97.2176 63.3174 95.198 62.7451C94.2551 56.1799 94.3872 47.0338 94.3872 47.0338Z" fill="#212121"/>
<path id="Vector_57" d="M115.423 86.7165C115.423 86.7073 115.423 86.6981 115.423 86.689C120.003 88.3381 128.333 90.7007 128.333 90.7007C128.333 90.7246 128.33 90.7484 128.328 90.7723C127.827 98.8636 123.234 104.884 123.234 104.884C123.228 104.888 123.219 104.891 123.214 104.895C115.315 109.276 107.959 108.96 106.814 108.881C106.712 108.874 106.66 108.868 106.66 108.868C104.554 105.401 102.834 99.9111 102.173 97.6383C107.13 94.8574 115.427 86.7165 115.427 86.7165H115.423Z" fill="#212121"/>
<path id="Vector_58" d="M111.94 68.6134C113.492 66.8213 118.32 61.1311 121.504 56.0168C128.508 56.5708 134.229 60.8981 134.229 60.8981C134.273 60.9715 134.317 61.043 134.36 61.1164C137.997 67.3496 137.678 76.0536 137.59 77.5633C137.583 77.7119 137.575 77.7908 137.575 77.7908C136.322 81.7567 134.13 84.9319 132.056 87.2524C130.649 88.8263 129.293 90.0058 128.328 90.7707C128.328 90.7469 128.332 90.723 128.334 90.6992C128.334 90.6992 120.004 88.3365 115.423 86.6874C115.348 85.2328 115.212 83.7928 115.038 82.3987C114.136 75.2483 112.173 69.294 111.942 68.6116L111.94 68.6134Z" fill="white"/>
<path id="Vector_59" d="M111.94 68.6134C111.971 68.5785 112.002 68.5418 112.033 68.5051C112.136 68.9435 112.235 69.3966 112.336 69.8607C112.136 69.2003 111.991 68.7693 111.94 68.6134Z" fill="white"/>
<path id="Vector_60" d="M112.336 69.8645C113.005 72.0566 114.304 76.758 115.007 82.1749C114.653 82.0539 114.312 81.9328 113.987 81.8172C113.767 77.5156 113.081 73.3333 112.336 69.8645Z" fill="white"/>
<path id="Vector_61" d="M81.6381 74.7639C81.6381 74.7639 88.0125 67.9107 94.8657 62.6516C94.8657 62.6516 94.9831 62.6828 95.1995 62.7452C97.221 63.3175 107.886 66.3882 111.918 68.5473C111.918 68.5473 111.925 68.5693 111.94 68.6133C112.215 69.4296 114.965 77.7686 115.422 86.6891C115.422 86.6983 115.422 86.7075 115.422 86.7166C115.422 86.7166 107.125 94.8576 102.168 97.6385C102.124 97.6641 102.078 97.6898 102.034 97.7137C102.034 97.7137 93.1322 96.602 84.5364 91.9923C84.5254 91.9868 84.5162 91.9831 84.5052 91.9758C84.5052 91.9758 81.9682 82.936 81.6399 74.8245C81.6399 74.8043 81.6362 74.7841 81.6362 74.7639H81.6381Z" fill="#F2F2F2"/>
<path id="Vector_62" d="M67.6128 54.5237C67.6348 54.4852 67.655 54.4466 67.6788 54.4099C72.0079 46.9918 80.9981 42.8901 80.9981 42.8901C81.022 42.8901 81.0458 42.8956 81.0697 42.8956C88.5685 43.6 92.7949 45.8068 94.5412 46.9588C94.488 46.9844 94.4385 47.0083 94.3853 47.034C94.3853 47.034 94.345 49.7617 94.4642 53.3075C94.5633 56.2535 94.7705 59.7645 95.1979 62.7453C94.9833 62.6829 94.8641 62.6518 94.8641 62.6518C88.0109 67.9109 81.6365 74.7641 81.6365 74.7641C81.6365 74.7842 81.6365 74.8044 81.6401 74.8246C77.1405 73.4562 67.9319 70.3011 67.9319 70.3011C67.8989 70.3542 67.8641 70.4056 67.831 70.4588C67.211 67.9072 66.901 65.5996 66.78 63.5854C66.4388 57.8934 67.6128 54.5237 67.6128 54.5237Z" fill="#F2F2F2"/>
<path id="Vector_63" d="M74.1683 97.5905C77.5986 96.3248 82.3239 93.4137 84.538 91.9902C93.1338 96.6 102.036 97.7116 102.036 97.7116C102.08 97.6878 102.126 97.6621 102.17 97.6364C102.832 99.911 104.553 105.399 106.657 108.866C106.657 108.866 106.71 108.872 106.811 108.879C105.668 110.006 101.561 113.674 95.5332 114.757C95.5222 114.757 95.5112 114.762 95.5002 114.762C95.5002 114.762 86.2568 114.602 78.7671 109.184C78.7671 109.184 74.6196 103.961 74.1665 97.5887L74.1683 97.5905Z" fill="white"/>
<path id="Vector_64" d="M76.8065 106.095C84.6943 111.607 94.2293 111.772 94.2293 111.772C94.2403 111.772 94.2532 111.767 94.2642 111.767C99.5637 110.815 103.464 107.984 105.338 106.355C105.755 107.254 106.197 108.111 106.657 108.869C106.657 108.869 106.71 108.874 106.811 108.881C105.668 110.008 101.561 113.676 95.5336 114.759C95.5225 114.759 95.5115 114.764 95.5005 114.764C95.5005 114.764 86.2572 114.605 78.7675 109.186C78.7675 109.186 77.8356 108.01 76.8047 106.095H76.8065Z" fill="white"/>
<path id="Vector_65" d="M124.694 99.4583C124.571 99.8838 124.424 100.302 124.269 100.715C124.113 101.129 123.948 101.54 123.764 101.944C123.582 102.347 123.394 102.751 123.177 103.142C122.966 103.534 122.737 103.921 122.467 104.288L122.442 104.323L122.403 104.347C121.932 104.633 121.455 104.873 120.965 105.103C120.479 105.334 119.978 105.536 119.475 105.723C118.969 105.904 118.459 106.073 117.938 106.211C117.421 106.352 116.894 106.466 116.364 106.55C116.863 106.352 117.364 106.172 117.857 105.97C118.353 105.774 118.841 105.569 119.325 105.354C119.813 105.147 120.288 104.912 120.765 104.684C121.238 104.451 121.711 104.204 122.159 103.949L122.095 104.007C122.22 103.835 122.344 103.663 122.46 103.479C122.579 103.299 122.695 103.116 122.807 102.929C123.03 102.557 123.243 102.175 123.454 101.79C123.665 101.405 123.87 101.017 124.076 100.629L124.692 99.4583H124.694Z" fill="white"/>
<path id="Vector_66" d="M81.4712 85.0786L82.1683 88.2154L82.5297 89.7746C82.5939 90.0332 82.6562 90.2919 82.7278 90.5487C82.792 90.8073 82.8635 91.0623 82.9332 91.3173L82.9754 91.4677L82.8525 91.5649C82.5663 91.7887 82.2784 91.9777 81.9793 92.1648C81.6859 92.3555 81.3758 92.5206 81.0713 92.6894C80.7613 92.8508 80.4477 93.0049 80.1285 93.1443C79.8075 93.2837 79.4846 93.414 79.1489 93.5204C79.4296 93.3094 79.7194 93.1168 80.0056 92.9224L80.8677 92.3464L81.728 91.7759C82.0105 91.5851 82.2985 91.3888 82.5663 91.1962L82.4838 91.4439C82.3407 90.9211 82.2197 90.3964 82.1133 89.8681C82.005 89.3417 81.9133 88.8116 81.8289 88.2814C81.7464 87.7513 81.6748 87.2193 81.6143 86.6855C81.5538 86.1517 81.5024 85.6179 81.4712 85.0804V85.0786Z" fill="white"/>
<path id="Vector_67" d="M141.13 77.8678C140.725 77.7357 140.33 77.5853 139.938 77.4257C139.741 77.3468 139.545 77.268 139.353 77.1818C139.16 77.0974 138.964 77.0167 138.773 76.9286L138.665 76.8791L138.657 76.736L138.617 75.8408L138.567 74.9438L138.512 74.045C138.492 73.7441 138.465 73.4433 138.448 73.1296C138.597 73.403 138.716 73.6928 138.804 73.99C138.892 74.2871 138.962 74.5916 139.008 74.8961C139.055 75.2025 139.083 75.5106 139.094 75.8188C139.105 76.1288 139.101 76.4352 139.074 76.7488L138.958 76.5544C139.143 76.6535 139.327 76.7598 139.51 76.8626C139.696 76.9653 139.875 77.0735 140.057 77.1818C140.42 77.3982 140.78 77.6202 141.13 77.8641V77.8678Z" fill="white"/>
<path id="Vector_68" d="M94.2766 116.052C93.4016 116.065 92.5303 115.982 91.6663 115.857C91.2334 115.797 90.8041 115.716 90.3749 115.632C90.1603 115.593 89.9475 115.536 89.7347 115.489C89.5219 115.439 89.3091 115.39 89.0982 115.331L88.4671 115.151L87.8416 114.955C87.6325 114.889 87.4289 114.808 87.2234 114.735C87.018 114.659 86.8125 114.586 86.6126 114.496C85.8018 114.17 85.0204 113.762 84.2866 113.291C85.1103 113.585 85.9174 113.889 86.741 114.146C87.1519 114.274 87.5628 114.406 87.9774 114.524L88.5974 114.703L89.2211 114.869C89.4283 114.929 89.6375 114.982 89.8466 115.034L90.4739 115.19C90.683 115.241 90.8922 115.296 91.1031 115.344C91.3141 115.39 91.5232 115.441 91.7341 115.492C92.5779 115.685 93.4236 115.866 94.2766 116.052Z" fill="white"/>
<path id="Vector_69" d="M115.06 62.2061C114.831 62.617 114.577 63.015 114.323 63.4094C114.064 63.802 113.798 64.1908 113.521 64.5706C113.248 64.9539 112.958 65.3245 112.668 65.6969C112.374 66.0656 112.066 66.4233 111.754 66.7791L111.641 66.9094L111.479 66.836C111.035 66.6361 110.58 66.4416 110.125 66.2545C109.674 66.0582 109.214 65.8803 108.759 65.6913C108.3 65.5079 107.844 65.3226 107.383 65.1447C106.925 64.9576 106.46 64.7888 106 64.5981C106.49 64.6843 106.976 64.7943 107.456 64.9191C107.937 65.0457 108.416 65.1832 108.887 65.3392C109.362 65.4877 109.828 65.662 110.296 65.8326C110.76 66.0142 111.219 66.1995 111.679 66.4031L111.402 66.4599C112.026 65.7721 112.626 65.0567 113.231 64.3449L114.137 63.2718C114.444 62.916 114.746 62.5583 115.06 62.2061Z" fill="white"/>
<path id="Vector_70" d="M123.212 104.405C123.322 104.405 123.43 104.442 123.52 104.514C124.107 104.987 125.212 105.682 127.145 106.304C127.314 106.359 127.439 106.498 127.475 106.673C127.51 106.845 127.45 107.025 127.316 107.14C119.512 113.915 109.517 117.644 99.1692 117.644C98.7564 117.644 98.3749 117.639 97.9988 117.628C97.8943 117.624 97.7916 117.587 97.709 117.523C96.3369 116.443 95.5591 115.586 95.1501 115.058C95.0455 114.922 95.018 114.742 95.0804 114.581C95.1427 114.419 95.2822 114.304 95.4509 114.274C101.343 113.216 105.375 109.609 106.47 108.531C106.571 108.432 106.708 108.382 106.848 108.391C108.191 108.485 115.279 108.735 122.976 104.466C123.049 104.426 123.131 104.404 123.212 104.404V104.405ZM126.024 106.953C124.665 106.443 123.753 105.908 123.168 105.48C115.691 109.532 108.801 109.481 107 109.386C105.723 110.609 101.923 113.852 96.4525 115.076C96.8505 115.501 97.41 116.035 98.1878 116.655C98.5033 116.663 98.8243 116.666 99.1692 116.666C108.996 116.666 118.498 113.223 126.024 106.953Z" fill="#212121"/>
<path id="Vector_71" d="M74.3996 108.698H78.7691C78.8718 108.698 78.9727 108.731 79.0571 108.791C86.0625 113.858 94.7556 114.252 95.4655 114.274C95.4655 114.274 95.4673 114.274 95.4691 114.274C95.6434 114.25 95.8158 114.32 95.9241 114.459C96.3001 114.944 97.021 115.736 98.3142 116.756C98.4793 116.886 98.5435 117.108 98.472 117.308C98.4023 117.503 98.217 117.631 98.0116 117.631C98.0079 117.631 98.0024 117.631 97.9987 117.631C89.3699 117.402 81.1116 114.619 74.1135 109.587C73.941 109.463 73.8677 109.243 73.9337 109.039C73.9997 108.837 74.1868 108.7 74.3996 108.7V108.698ZM78.6113 109.677H75.9698C82.1296 113.772 89.2048 116.142 96.5973 116.587C96.0048 116.048 95.5884 115.595 95.3022 115.248C93.9008 115.195 85.6076 114.669 78.6132 109.675L78.6113 109.677Z" fill="#212121"/>
<path id="Vector_72" d="M137.59 77.0735C137.672 77.0735 137.755 77.0937 137.828 77.1359C138.652 77.5944 139.967 78.2768 141.567 78.928C141.769 79.0106 141.893 79.2179 141.87 79.4343C140.688 90.18 135.521 100.018 127.316 107.139C127.185 107.251 127.007 107.287 126.844 107.236C124.77 106.566 123.557 105.801 122.906 105.275C122.777 105.17 122.71 105.009 122.726 104.844C122.739 104.721 122.798 104.609 122.886 104.53C123.342 103.905 127.38 98.1724 127.84 90.7413C127.849 90.6019 127.915 90.4735 128.026 90.3873C130.539 88.3989 135.051 84.1119 137.093 77.699C137.095 77.6623 137.098 77.6091 137.102 77.5376C137.111 77.3688 137.207 77.2166 137.355 77.134C137.429 77.0937 137.511 77.0735 137.592 77.0735H137.59ZM140.853 79.693C139.688 79.2032 138.683 78.7061 137.926 78.3025C135.807 84.6512 131.392 88.94 128.803 91.0202C128.308 97.9944 124.913 103.343 123.9 104.796C124.507 105.216 125.454 105.734 126.883 106.218C134.686 99.3555 139.635 89.9581 140.853 79.693Z" fill="#212121"/>
<path id="Vector_73" d="M136.445 53.8284C136.621 53.8284 136.788 53.9238 136.874 54.0833C140.312 60.3587 142.128 67.4834 142.128 74.6851C142.128 76.2718 142.04 77.8696 141.867 79.4379C141.851 79.5902 141.763 79.7259 141.63 79.8048C141.498 79.8837 141.337 79.8965 141.194 79.8378C139.55 79.1665 138.197 78.4639 137.349 77.9943C137.184 77.9026 137.087 77.7246 137.098 77.5375C137.193 75.905 137.485 67.4522 133.933 61.3658C133.851 61.2227 133.844 61.0484 133.919 60.8998C134.636 59.4599 135.572 57.1394 135.959 54.2539C135.986 54.0448 136.146 53.8761 136.355 53.8375C136.384 53.832 136.415 53.8302 136.445 53.8302V53.8284ZM140.961 78.6748C141.086 77.3541 141.15 76.015 141.15 74.6851C141.15 68.1327 139.611 61.6464 136.687 55.8333C136.239 58.0382 135.518 59.8469 134.913 61.0998C138.285 67.0835 138.195 75.0593 138.094 77.2826C138.802 77.6678 139.789 78.1704 140.959 78.6748H140.961Z" fill="#212121"/>
<path id="Vector_74" d="M57.5824 82.8663C57.6356 82.8663 57.6888 82.8755 57.7401 82.892C60.5357 83.8385 62.4398 84.0293 63.5495 84.0128H63.5532C63.7422 84.0128 63.9146 84.121 63.9953 84.2916C67.2219 91.0513 72.7874 96.149 73.9321 97.1542C73.9522 97.1469 73.9742 97.1395 73.9944 97.1304C74.1393 97.0772 74.3008 97.0937 74.431 97.1762C74.5612 97.2606 74.6438 97.4 74.6548 97.5541C75.0932 103.705 79.1105 108.828 79.1508 108.879C79.2682 109.026 79.2902 109.228 79.2077 109.397C79.1251 109.566 78.9545 109.674 78.7656 109.674H74.3961C74.2934 109.674 74.1925 109.641 74.11 109.582C65.327 103.266 59.2865 93.9881 57.0999 83.4533C57.0632 83.2809 57.1238 83.103 57.2558 82.9874C57.3476 82.9067 57.4631 82.8645 57.5805 82.8645L57.5824 82.8663ZM63.245 84.9924C62.1591 84.9703 60.5008 84.7759 58.2427 84.0844C60.5063 93.9863 66.2736 102.694 74.5576 108.696H77.8062C76.6708 107.043 74.2311 103.006 73.7284 98.1906C73.6514 98.1741 73.578 98.1393 73.5138 98.0879C73.4478 98.0329 66.956 92.5701 63.245 84.9905V84.9924Z" fill="#212121"/>
<path id="Vector_75" d="M62.5368 52.6874C62.557 52.6874 62.5753 52.6874 62.5955 52.691C65.2168 53.0047 66.9118 53.5532 67.8711 53.9604C68.0051 54.0173 68.1059 54.1292 68.15 54.2686C68.1922 54.408 68.1702 54.5584 68.0913 54.6795C68.0821 54.6942 68.0729 54.7107 68.0638 54.7254C67.8913 55.2628 66.0992 61.2557 68.3077 70.3431C68.3169 70.3817 68.3224 70.4202 68.3224 70.4587C68.3224 70.5523 68.2967 70.644 68.2454 70.7229C64.8738 76.0315 64.0703 83.1984 63.9695 84.2366C63.9768 84.255 63.986 84.2715 63.9933 84.288C64.0667 84.4384 64.0575 84.6182 63.9695 84.7613C63.8814 84.9043 63.7255 84.9924 63.5567 84.9942C62.3736 84.9979 60.3484 84.8108 57.4244 83.8202C57.2593 83.7652 57.1364 83.6258 57.1016 83.4552C56.5073 80.5844 56.2046 77.6329 56.2046 74.6833C56.2046 67.0193 58.2481 59.4965 62.1131 52.9277C62.2011 52.7773 62.3625 52.6855 62.535 52.6855L62.5368 52.6874ZM67.0475 54.6868C66.1468 54.3512 64.7674 53.9604 62.7955 53.7036C59.1231 60.056 57.1841 67.3036 57.1841 74.6833C57.1841 77.4715 57.4593 80.2616 58.0041 82.9801C60.2494 83.7157 61.9003 83.9541 63.0046 84.0037C63.1532 82.5197 63.9915 75.7105 67.3043 70.3743C65.27 61.8335 66.6366 56.0901 67.0457 54.6868H67.0475Z" fill="#212121"/>
<path id="Vector_76" d="M83.2964 34.7894C83.4339 34.7894 83.5678 34.8481 83.6632 34.9545C83.8008 35.1104 83.8265 35.3342 83.7256 35.5158C82.0123 38.6269 81.6032 41.2537 81.561 42.9102C81.5574 43.0441 81.5005 43.1688 81.4015 43.2587C81.3171 43.3357 81.2088 43.3798 81.097 43.3853C80.0825 43.8732 72.0499 47.8923 68.1023 54.6574C67.9776 54.8702 67.7153 54.9583 67.4878 54.8611C66.5871 54.4795 64.9857 53.9622 62.4781 53.6632C62.3131 53.643 62.17 53.5421 62.0966 53.3936C62.0232 53.245 62.0287 53.0707 62.1131 52.9276C66.9063 44.7775 74.3648 38.3481 83.1111 34.8225C83.1698 34.7986 83.2322 34.7876 83.2945 34.7876L83.2964 34.7894ZM80.5943 42.5396C80.6732 41.0043 81.0493 38.8122 82.2508 36.2533C74.4602 39.6909 67.8033 45.5095 63.3421 52.7901C65.237 53.067 66.5835 53.4633 67.475 53.8008C71.5821 47.0852 79.2241 43.1982 80.5962 42.5396H80.5943Z" fill="#212121"/>
<path id="Vector_77" d="M99.1674 31.7225C104.005 31.7225 108.748 32.5205 113.27 34.0925C113.505 34.1733 113.641 34.4172 113.587 34.6594C112.91 37.7741 112.063 40.9402 111.472 43.0479C111.43 43.1965 111.322 43.3157 111.177 43.3726C111.069 43.4148 110.95 43.4166 110.841 43.3799C109.893 43.3836 102.827 43.5487 94.7521 47.4009C94.598 47.4742 94.4146 47.4632 94.2715 47.3678C92.461 46.1755 88.3318 44.0715 81.0237 43.3836C80.7669 43.3597 80.5725 43.1415 80.5798 42.8828C80.6256 41.1182 81.0586 38.3263 82.8654 35.0409C82.9204 34.9418 83.0067 34.8648 83.1112 34.8226C88.2144 32.7645 93.6166 31.7207 99.1656 31.7207L99.1674 31.7225ZM112.536 34.8776C108.242 33.434 103.748 32.7021 99.1674 32.7021C93.8019 32.7021 88.5795 33.7 83.6413 35.6683C82.1445 38.4437 81.6822 40.8228 81.5814 42.4554C88.5244 43.1763 92.6279 45.1648 94.5797 46.3993C102.392 42.7306 109.071 42.4206 110.636 42.4004C111.113 40.6834 111.896 37.7668 112.536 34.8776Z" fill="#212121"/>
<path id="Vector_78" d="M113.108 34.0647C113.163 34.0647 113.216 34.0739 113.27 34.0922C123.351 37.594 131.734 44.693 136.874 54.0831C136.924 54.1748 136.944 54.2794 136.929 54.384C136.526 57.4015 135.546 59.8302 134.796 61.3362C134.715 61.4976 134.554 61.6022 134.374 61.6077C134.192 61.615 134.025 61.5215 133.934 61.3656C133.908 61.3215 133.882 61.2793 133.857 61.2371C133.172 60.7437 127.816 57.0108 121.462 56.5063C121.291 56.4935 121.139 56.3908 121.062 56.2367C120.987 56.0863 120.994 55.9083 121.08 55.7634C120.436 54.3931 116.87 47.2538 110.733 43.3282C110.551 43.2127 110.467 42.9907 110.525 42.7834C111.008 41.0683 111.921 37.7041 112.627 34.4517C112.657 34.3142 112.745 34.1968 112.866 34.1289C112.939 34.0867 113.022 34.0665 113.106 34.0665L113.108 34.0647ZM135.937 54.4115C130.997 45.4671 123.038 38.6653 113.468 35.202C112.851 37.9719 112.118 40.7308 111.569 42.7009C118.279 47.1584 121.812 54.9746 122.076 55.5781C128.058 56.2128 132.949 59.3954 134.212 60.2833C134.86 58.8671 135.592 56.8457 135.937 54.4115Z" fill="#212121"/>
<path id="Vector_79" d="M67.9313 69.811C67.9845 69.811 68.0377 69.8202 68.0891 69.8367C68.1808 69.8679 77.3416 73.0028 81.7808 74.3548C81.9807 74.4153 82.1201 74.5951 82.1275 74.8042C82.4283 82.2444 84.6332 90.5871 84.9395 91.7152C84.9854 91.7831 85.0147 91.8638 85.0221 91.9482C85.0386 92.1298 84.9524 92.3059 84.7983 92.4031C82.3586 93.9715 77.7543 96.789 74.3332 98.0511C74.2158 98.0951 74.0984 98.1355 73.9829 98.1758C73.8214 98.2308 73.6417 98.1978 73.5096 98.0896C73.4436 98.0346 66.794 92.4379 63.1069 84.7153C63.0922 84.6859 63.0776 84.6529 63.0611 84.6199L63.0225 84.541C62.984 84.4621 62.9675 84.3759 62.9748 84.2878C63.0005 83.9577 63.6517 76.1359 67.3975 70.2219C67.4012 70.2164 67.403 70.2109 67.4067 70.2054C67.4305 70.1669 67.4562 70.1265 67.48 70.088L67.5112 70.0385C67.6029 69.8936 67.7607 69.811 67.9258 69.811H67.9313ZM81.1662 75.1912C77.1361 73.9512 69.8537 71.4748 68.1404 70.8896C64.8569 76.18 64.07 83.2092 63.9691 84.2365C63.9764 84.2548 63.9856 84.2713 63.9929 84.2878C67.2214 91.0511 72.7869 96.1488 73.9315 97.1541C73.9517 97.1467 73.9737 97.1394 73.9939 97.1302C77.2737 95.9214 81.8284 93.1331 83.9453 91.7849C83.5014 90.1248 81.5074 82.3177 81.1644 75.1894L81.1662 75.1912Z" fill="#212121"/>
<path id="Vector_80" d="M110.816 42.4C110.898 42.4 110.951 42.4 110.971 42.4C111.06 42.4019 111.146 42.4275 111.219 42.4734L111.247 42.4917C111.247 42.4917 111.261 42.5009 111.263 42.5028C118.294 47.0006 121.935 55.2553 122.086 55.6038C122.15 55.7505 122.137 55.9175 122.055 56.0532C122.009 56.1284 121.963 56.2018 121.915 56.2788C118.696 61.4481 113.747 67.2722 112.307 68.9341C112.191 69.068 112.015 69.1286 111.841 69.0937C111.72 69.0699 111.615 69.002 111.544 68.9066C107.457 66.7769 97.1147 63.7979 95.062 63.2164C94.8749 63.1632 94.7373 63.0054 94.7098 62.8147C93.7724 56.2862 93.8917 47.118 93.8935 47.0263C93.8953 46.841 94.0036 46.6741 94.1687 46.5934L94.3246 46.5182C102.598 42.5706 109.653 42.3982 110.81 42.3982L110.816 42.4ZM121.084 55.7652C120.444 54.4004 116.906 47.318 110.817 43.3814C109.775 43.3888 102.829 43.5814 94.8749 47.3455C94.8639 48.9542 94.8529 56.609 95.6398 62.3634C98.2428 63.1063 107.767 65.8872 111.854 67.9637C113.563 65.9735 118.087 60.5767 121.084 55.7652Z" fill="#212121"/>
<path id="Vector_81" d="M115.421 86.1995C115.476 86.1995 115.533 86.2086 115.588 86.2288C120.099 87.8541 128.383 90.2057 128.466 90.2296C128.688 90.2919 128.836 90.5029 128.821 90.7322L128.816 90.8037C128.312 98.9483 123.814 104.93 123.621 105.181C123.577 105.24 123.52 105.288 123.454 105.321L123.449 105.325C115.509 109.727 108.168 109.467 106.778 109.371C106.668 109.362 106.613 109.358 106.613 109.358C106.459 109.344 106.319 109.257 106.239 109.125C104.092 105.589 102.35 100.012 101.699 97.778C101.634 97.5597 101.73 97.3249 101.93 97.213C106.505 94.6467 114.097 87.3239 114.992 86.4526C115.027 86.3884 115.077 86.3334 115.139 86.2893C115.223 86.2306 115.321 86.1995 115.421 86.1995ZM127.816 91.0624C126.169 90.5909 119.589 88.685 115.566 87.2616C114.275 88.5144 107.347 95.1567 102.75 97.8697C103.443 100.21 105.03 105.136 106.949 108.399C108.499 108.494 115.403 108.641 122.902 104.506C123.427 103.782 127.27 98.2512 127.816 91.0624Z" fill="#212121"/>
<path id="Vector_82" d="M121.502 55.5269C121.515 55.5269 121.528 55.5269 121.541 55.5269C128.607 56.0863 134.284 60.3256 134.523 60.5053C134.572 60.542 134.614 60.5879 134.646 60.6411C134.691 60.7163 134.735 60.7915 134.781 60.8667C138.476 67.1953 138.175 75.9067 138.078 77.5888C138.068 77.7429 138.063 77.8272 138.063 77.8272C138.059 77.8639 138.052 77.9006 138.041 77.9355C135.928 84.6272 131.237 89.0884 128.629 91.1521C128.477 91.2731 128.269 91.2915 128.097 91.2016C128.047 91.1759 128.003 91.1411 127.967 91.1025C126.591 90.7081 119.373 88.6298 115.254 87.1458C115.069 87.0798 114.941 86.9073 114.932 86.7092C114.479 77.8694 111.78 69.6717 111.474 68.7655C111.419 68.6004 111.454 68.4188 111.567 68.2885C112.996 66.6413 117.903 60.8649 121.086 55.7543C121.176 55.6094 121.334 55.5232 121.502 55.5232V55.5269ZM133.859 61.2354C133.185 60.7493 127.983 57.1228 121.757 56.5303C118.663 61.4372 114.101 66.8541 112.49 68.7215C113.046 70.4219 115.416 78.0639 115.891 86.335C120.075 87.8172 127.073 89.8295 128.284 90.1762C130.837 88.1052 135.115 83.8935 137.089 77.697C137.091 77.6603 137.094 77.6071 137.098 77.5356C137.193 75.9012 137.485 67.4466 133.934 61.362C133.908 61.3198 133.884 61.2776 133.859 61.2336V61.2354Z" fill="#212121"/>
<path id="Vector_83" d="M94.8655 62.1619C94.9076 62.1619 94.9517 62.1674 94.9939 62.1784C94.9939 62.1784 95.1149 62.2114 95.3351 62.2756C97.4262 62.8681 108.075 65.9352 112.151 68.1162C112.257 68.1731 112.34 68.2685 112.38 68.384C112.38 68.384 112.389 68.4097 112.406 68.4592C112.716 69.3764 115.453 77.6934 115.913 86.6635C115.913 86.6635 115.913 86.6653 115.913 86.6671C115.913 86.6837 115.915 86.7002 115.915 86.7167C115.915 86.8488 115.862 86.9735 115.768 87.067C115.427 87.4009 107.368 95.285 102.412 98.0659C102.366 98.0916 102.318 98.1191 102.271 98.1448C102.181 98.1925 102.078 98.2108 101.979 98.1998C101.889 98.1888 92.899 97.024 84.327 92.4326C84.3068 92.4234 84.2867 92.4124 84.2647 92.4014C84.1546 92.3372 84.072 92.2326 84.0372 92.1097C84.0115 92.018 81.4819 82.9287 81.1536 74.8538C81.1517 74.8227 81.1499 74.7951 81.1499 74.7658C81.1499 74.641 81.1976 74.5218 81.282 74.4319C81.3462 74.3622 87.7628 67.4889 94.5701 62.2646C94.6563 62.1986 94.7627 62.1637 94.8691 62.1637L94.8655 62.1619ZM111.516 68.8903C107.409 66.7606 97.1125 63.7963 95.0654 63.2166C95.0305 63.2075 94.9994 63.1983 94.97 63.1891C88.8561 67.9144 83.0998 73.9293 82.1368 74.9474C82.4541 82.2096 84.5545 90.2717 84.9232 91.6401C92.6771 95.7583 100.724 97.0295 101.941 97.2037C106.416 94.687 113.756 87.6504 114.922 86.5186C114.456 78.0585 111.962 70.2331 111.516 68.8885V68.8903Z" fill="#212121"/>
<path id="Vector_84" d="M80.9996 42.4C81.0107 42.4 81.0217 42.4 81.0308 42.4C81.0492 42.4 81.0657 42.4037 81.084 42.4037H81.1024C88.6361 43.1136 92.9249 45.3038 94.8106 46.5475C94.9573 46.6447 95.0417 46.8135 95.0307 46.9896C95.0215 47.118 94.9647 47.2354 94.873 47.318C94.8601 48.901 94.8473 56.8603 95.6819 62.6734C95.7057 62.8385 95.6434 63.0036 95.5187 63.1137C95.3939 63.2237 95.2196 63.2604 95.0619 63.2146C95.0289 63.2054 94.9977 63.1962 94.9683 63.1871C88.7774 67.9729 82.9532 74.0795 82.1021 74.982C82.0728 75.0664 82.0196 75.1434 81.9462 75.2021C81.8196 75.303 81.6527 75.3379 81.4968 75.2902C77.5125 74.0777 69.7568 71.4399 68.0912 70.8712C67.9922 70.9336 67.8748 70.9593 67.7555 70.9409C67.5593 70.9097 67.4015 70.7648 67.3538 70.5722C64.9746 60.784 67.0585 54.6169 67.1484 54.3601C67.1594 54.3307 67.1722 54.3014 67.1869 54.2757L67.2016 54.2482C67.2199 54.2152 67.2382 54.184 67.2584 54.1528C71.6169 46.6924 80.42 42.6128 80.7924 42.4422C80.8566 42.4129 80.9263 42.3982 80.996 42.3982L80.9996 42.4ZM93.8952 47.1272C91.9251 45.9128 87.8877 44.0381 81.0877 43.3906C80.0348 43.8969 72.0388 47.9123 68.1022 54.6573C68.0986 54.6646 68.0931 54.6719 68.0894 54.6774C68.0802 54.6921 68.071 54.7086 68.0619 54.7233C67.8913 55.2553 66.1596 61.05 68.1958 69.8733C69.2065 70.2182 77.1677 72.9349 81.4454 74.2519C82.5002 73.1366 88.372 67.0172 94.5666 62.2625C94.5868 62.246 94.6088 62.2332 94.6308 62.2203C93.831 56.1229 93.8842 48.1159 93.8952 47.1272Z" fill="#212121"/>
<path id="Vector_85" d="M84.5379 91.5007C84.6168 91.5007 84.6975 91.5209 84.7691 91.5594C92.5633 95.7381 100.717 97.0295 101.941 97.2056C102.069 97.1377 102.219 97.1304 102.353 97.1836C102.493 97.2405 102.597 97.356 102.639 97.5009C103.267 99.6545 104.923 104.967 106.956 108.412C107.101 108.456 107.218 108.566 107.273 108.713C107.339 108.892 107.293 109.094 107.157 109.23C106.011 110.36 101.794 114.133 95.623 115.241C95.623 115.241 95.6212 115.241 95.6193 115.241C95.6028 115.245 95.5863 115.248 95.5716 115.25C95.546 115.254 95.5203 115.256 95.4946 115.256C95.1112 115.248 86.0109 115.032 78.4827 109.586C78.446 109.56 78.4148 109.529 78.3855 109.494C78.213 109.276 74.1389 104.079 73.6803 97.6293C73.6656 97.4111 73.7959 97.2111 73.9995 97.1341C77.4573 95.8592 82.3367 92.8251 84.2738 91.5814C84.3545 91.5301 84.4462 91.5044 84.5379 91.5044V91.5007ZM101.818 98.176C100.59 97.9999 92.4367 96.714 84.5599 92.5573C82.1533 94.0945 77.9526 96.6443 74.6856 97.9173C75.2194 103.578 78.6991 108.289 79.1119 108.83C86.1026 113.854 94.7443 114.249 95.4634 114.273C100.812 113.308 104.626 110.244 106.097 108.885C104.134 105.543 102.528 100.564 101.818 98.176Z" fill="#212121"/>
</g>
<g id="shedow">
<path id="Vector_86" opacity="0.06" d="M108.484 61.8885C108.484 74.1163 98.5711 84.0274 86.345 84.0274C80.4732 84.0274 74.8417 81.6941 70.6905 77.5429C66.5394 73.3918 64.2061 67.7603 64.2061 61.8885C64.2061 49.6606 74.119 39.7495 86.345 39.7495C98.5729 39.7495 108.484 49.6624 108.484 61.8885Z" fill="#171716"/>
</g>
</g>
</svg>
