<svg width="26" height="29" viewBox="0 0 26 29" fill="none" xmlns="http://www.w3.org/2000/svg">
<path d="M25.6159 22.0759L24.7908 26.8718C24.6588 27.6576 23.9856 28.2333 23.2067 28.2333L16.7052 28.2198V28.2333L10.7515 28.2198C9.75485 28.2198 9.00239 27.2985 9.174 26.296L9.99907 21.4053C10.1047 20.7618 9.62944 20.1725 8.98919 20.1725L3.59657 20.1589C2.96292 20.1589 2.48108 19.5696 2.58669 18.9261L3.53056 13.3444C3.63617 12.7009 3.16093 12.1116 2.52068 12.1116L0.797947 12.1048C0.302909 12.1048 -0.0733208 11.6442 0.0124859 11.143L0.415117 8.75179C0.481123 8.35891 0.817749 8.06763 1.20718 8.06763H3.86059C4.17741 8.06763 4.42163 8.36568 4.36883 8.68405L3.9992 10.8449C3.88699 11.4884 4.36883 12.0777 5.00908 12.0777H9.89346C11.0221 12.0642 11.7086 11.4681 11.9132 10.3301L12.9825 4.02366H12.9627L13.4511 1.34122C13.5897 0.562228 14.2564 0 15.0287 0H19.6358C20.6325 0 21.3916 0.921241 21.2133 1.93054C21.0417 2.9263 20.8635 3.94914 20.8503 4.02366L19.6952 10.7501C19.5632 11.5358 18.89 12.1116 18.1111 12.1116L13.3323 12.0981C12.197 12.0913 11.5106 12.7348 11.306 13.8389L10.4347 18.899C10.3225 19.5425 10.8043 20.1318 11.4446 20.1318H24.012C25.035 20.1454 25.7941 21.0666 25.6159 22.0759V22.0759Z" fill="white"/>
</svg>
