<svg width="121" height="29" viewBox="0 0 121 29" fill="none" xmlns="http://www.w3.org/2000/svg">
<g clip-path="url(#clip0_3325_78880)">
<path d="M25.6159 22.0759L24.7908 26.8718C24.6588 27.6576 23.9856 28.2333 23.2067 28.2333L16.7052 28.2198V28.2333L10.7515 28.2198C9.75485 28.2198 9.00239 27.2985 9.174 26.296L9.99907 21.4053C10.1047 20.7618 9.62944 20.1725 8.98919 20.1725L3.59657 20.1589C2.96292 20.1589 2.48108 19.5696 2.58669 18.9261L3.53056 13.3444C3.63617 12.7009 3.16093 12.1116 2.52068 12.1116L0.797947 12.1048C0.302909 12.1048 -0.0733208 11.6442 0.0124859 11.143L0.415117 8.75179C0.481123 8.35891 0.817749 8.06763 1.20718 8.06763H3.86059C4.17741 8.06763 4.42163 8.36568 4.36883 8.68405L3.9992 10.8449C3.88699 11.4884 4.36883 12.0777 5.00908 12.0777H9.89346C11.0221 12.0642 11.7086 11.4681 11.9132 10.3301L12.9825 4.02366H12.9627L13.4511 1.34122C13.5897 0.562228 14.2564 0 15.0287 0H19.6358C20.6325 0 21.3916 0.921241 21.2133 1.93054C21.0417 2.9263 20.8635 3.94914 20.8503 4.02366L19.6952 10.7501C19.5632 11.5358 18.89 12.1116 18.1111 12.1116L13.3323 12.0981C12.197 12.0913 11.5106 12.7348 11.306 13.8389L10.4347 18.899C10.3225 19.5425 10.8043 20.1318 11.4446 20.1318H24.012C25.035 20.1454 25.7941 21.0666 25.6159 22.0759Z" fill="white"/>
<path d="M43.0545 19.7524H36.1503V5.01934C36.1503 4.77548 35.9589 4.57227 35.7147 4.57227H33.6883C33.4507 4.57227 33.2527 4.76871 33.2527 5.01934V21.9336C33.2527 22.1775 33.4441 22.3807 33.6883 22.3807H43.0479C43.2855 22.3807 43.4835 22.1842 43.4835 21.9336V20.1995C43.4835 19.9489 43.2921 19.7524 43.0545 19.7524Z" fill="white"/>
<path d="M71.7667 10.3775C70.506 9.00239 68.9087 8.30469 67.0077 8.30469C65.5688 8.30469 63.1332 8.99562 62.2554 10.4994V9.06336C62.2554 8.8195 62.0639 8.61628 61.8197 8.61628H59.932C59.6944 8.61628 59.4963 8.81273 59.4963 9.06336V26.1808C59.4963 26.4247 59.6878 26.6279 59.932 26.6279H61.8197C62.0573 26.6279 62.2554 26.4315 62.2554 26.1808V20.4976C62.9814 21.8591 65.2586 22.6923 67.0077 22.6923C68.8955 22.6923 70.4994 22.0014 71.7667 20.6466C73.0736 19.2512 73.7139 17.5645 73.7139 15.4985C73.7139 13.4325 73.0802 11.7526 71.7667 10.3775ZM69.7139 18.838C68.8757 19.7321 67.813 20.1792 66.5655 20.1792C65.318 20.1792 64.2091 19.7321 63.3114 18.838C62.4468 17.9506 62.0045 16.8262 62.0045 15.4985C62.0045 14.1708 62.4468 13.0464 63.3114 12.1522C64.2025 11.2649 65.2982 10.8178 66.5655 10.8178C67.8328 10.8178 68.8757 11.2716 69.7073 12.159C70.5522 13.026 70.9878 14.1505 70.9878 15.4985C70.9878 16.8465 70.5588 17.9709 69.7139 18.838Z" fill="white"/>
<path d="M87.9577 10.303C86.5386 8.90077 84.7895 8.19629 82.7499 8.19629C80.7104 8.19629 78.9546 8.90754 77.5421 10.303C76.1296 11.6984 75.4102 13.446 75.4102 15.4985C75.4102 17.551 76.1296 19.2986 77.5421 20.694C78.9612 22.0962 80.7104 22.8007 82.7499 22.8007C84.7895 22.8007 86.5452 22.0894 87.9577 20.694C89.3702 19.2986 90.0897 17.551 90.0897 15.4985C90.0897 13.446 89.3702 11.6984 87.9577 10.303ZM86.0304 18.926C85.1459 19.8337 84.0436 20.2944 82.7499 20.2944C81.4562 20.2944 80.3209 19.8337 79.4299 18.9193C78.5586 17.9642 78.1296 16.8397 78.1296 15.4985C78.1296 14.1573 78.5652 13.0193 79.4299 12.1048C80.3209 11.1632 81.4034 10.7026 82.7433 10.7026C84.0832 10.7026 85.1525 11.1768 86.0238 12.098C86.9083 13.0057 87.3571 14.1505 87.3571 15.4985C87.3637 16.8532 86.9281 17.9709 86.0304 18.926Z" fill="white"/>
<path d="M99.6078 8.34515C99.5088 8.33838 99.4098 8.33838 99.3042 8.33838C97.456 8.33838 95.4825 9.15801 94.8554 10.5873V9.06318C94.8554 8.81932 94.664 8.61611 94.4198 8.61611H92.5584C92.3208 8.61611 92.1228 8.81255 92.1228 9.06318V21.9335C92.1228 22.1773 92.3142 22.3805 92.5584 22.3805H94.4198C94.6574 22.3805 94.8554 22.1841 94.8554 21.9335V15.1325C94.8554 12.6194 96.4527 10.9937 98.9147 10.9937C99.126 10.9937 99.3372 11.0005 99.5484 11.0208C99.7992 11.0411 100.017 10.8379 100.017 10.5805V8.79223C100.017 8.54837 99.8388 8.35193 99.6078 8.34515Z" fill="white"/>
<path d="M108.083 8.62302H104.915V5.01934C104.915 4.77548 104.723 4.57227 104.479 4.57227H102.591C102.354 4.57227 102.156 4.76871 102.156 5.01934V18.208C102.156 21.2833 103.542 22.7803 106.386 22.7803C106.835 22.7803 107.443 22.7532 107.951 22.699C108.169 22.6787 108.34 22.4823 108.34 22.2587V20.6737C108.34 20.4163 108.129 20.213 107.878 20.2334C107.528 20.2605 107.172 20.274 106.947 20.274C105.542 20.274 104.908 19.5221 104.908 17.8422V11.1429H108.076C108.314 11.1429 108.512 10.9464 108.512 10.6958V9.07009C108.518 8.81946 108.32 8.62302 108.083 8.62302Z" fill="white"/>
<path d="M121 18.4925C121 19.7456 120.531 20.8024 119.654 21.5475C118.71 22.34 117.304 22.76 115.588 22.76C113.178 22.76 111.258 21.8862 110.32 20.3688C110.235 20.2334 110.261 20.0505 110.38 19.9489L111.812 18.7093C111.865 18.6618 111.931 18.6347 112.004 18.6347C112.096 18.6347 112.182 18.6754 112.248 18.7499C113.007 19.6373 114.274 20.1656 115.64 20.1656C117.931 20.1656 118.175 19.0208 118.175 18.5264C118.175 18.0319 117.871 17.6051 117.337 17.3138C117.027 17.1106 116.465 16.921 116.056 16.7787C115.951 16.7448 115.812 16.6974 115.66 16.65C115.244 16.5145 114.736 16.3452 114.4 16.2029C112.136 15.3698 111.165 14.2385 111.165 12.4231C111.165 11.1835 111.594 10.2284 112.479 9.50361C113.416 8.76526 114.499 8.40625 115.799 8.40625C117.489 8.40625 118.835 8.96848 119.812 10.0862C119.918 10.2081 119.911 10.391 119.799 10.5129L118.591 11.827C118.531 11.888 118.452 11.9286 118.366 11.9286C118.287 11.9286 118.208 11.8948 118.149 11.8406C117.555 11.2716 116.743 10.9871 115.739 10.9871C114.736 10.9871 113.977 11.5358 113.977 12.3554C113.977 12.877 114.248 13.1615 114.65 13.4257C115.258 13.8253 115.944 14.0353 116.604 14.2317C116.888 14.3198 117.178 14.4079 117.462 14.5095C119.944 15.3968 121 16.589 121 18.4925Z" fill="white"/>
<path d="M57.272 17.4696C57.272 20.7346 55.0345 22.6787 51.2854 22.6787C48.3217 22.6787 46.038 21.3713 44.8565 19.0005C44.7839 18.8582 44.8367 18.6753 44.9687 18.5873L46.6056 17.5238C46.6518 17.4899 46.7112 17.4764 46.7706 17.4764C46.8762 17.4764 46.9752 17.5306 47.028 17.6254C47.9521 19.2308 49.3976 20.0369 51.3118 20.0369C52.8035 20.0369 54.3942 19.3798 54.3942 17.5441C54.3942 16.6838 54.0774 16.0945 53.3381 15.5932C52.6121 15.0784 52.084 14.8346 50.7573 14.3333C49.2524 13.7508 48.3019 13.2969 47.2591 12.4366C46.2954 11.617 45.8268 10.4858 45.8268 8.98875C45.8268 7.5798 46.3218 6.46211 47.3383 5.56119C48.368 4.67382 49.6022 4.24707 51.1138 4.24707C53.2853 4.24707 54.9751 5.08703 56.15 6.74661C56.1962 6.81435 56.216 6.89564 56.2028 6.9837C56.1896 7.07176 56.1434 7.14627 56.0708 7.19369L54.546 8.2775C54.4932 8.31137 54.4338 8.33169 54.3678 8.33169C54.2754 8.33169 54.1962 8.29105 54.1368 8.22331C53.4371 7.34271 52.4339 6.89564 51.16 6.89564C49.7079 6.89564 48.6518 7.75592 48.6518 8.94134C48.6518 9.40873 48.7574 9.76774 49.0016 10.1132C49.3976 10.6822 50.0049 10.9532 50.5857 11.2173C50.6385 11.2444 50.6979 11.2648 50.7507 11.2919C51.193 11.4951 51.6418 11.678 52.0774 11.8609C53.0081 12.247 53.9718 12.6466 54.8431 13.2021C55.4305 13.5814 55.8595 13.9336 56.2028 14.3198C56.9156 15.1055 57.272 16.1622 57.272 17.4696Z" fill="white"/>
</g>
<defs>
<clipPath id="clip0_3325_78880">
<rect width="121" height="28.2333" fill="white"/>
</clipPath>
</defs>
</svg>
