<svg width="20" height="21" viewBox="0 0 20 21" fill="none" xmlns="http://www.w3.org/2000/svg">
<g id="loop" clip-path="url(#clip0_11477_1262)">
<path id="Vector" d="M10.0002 3.77783V1.27783L6.66683 4.61117L10.0002 7.9445V5.4445C12.7585 5.4445 15.0002 7.68617 15.0002 10.4445C15.0002 11.2862 14.7918 12.0862 14.4168 12.7778L15.6335 13.9945C16.2835 12.9695 16.6668 11.7528 16.6668 10.4445C16.6668 6.76117 13.6835 3.77783 10.0002 3.77783ZM10.0002 15.4445C7.24183 15.4445 5.00016 13.2028 5.00016 10.4445C5.00016 9.60283 5.2085 8.80283 5.5835 8.11117L4.36683 6.8945C3.71683 7.9195 3.3335 9.13617 3.3335 10.4445C3.3335 14.1278 6.31683 17.1112 10.0002 17.1112V19.6112L13.3335 16.2778L10.0002 12.9445V15.4445Z" fill="white"/>
</g>
<defs>
<clipPath id="clip0_11477_1262">
<rect width="20" height="20" fill="white" transform="translate(0 0.44458)"/>
</clipPath>
</defs>
</svg>
